Coordinates
version=1
nRows=38
nColumns=12
inDegrees=yes

Units are S.I. units (second, meters, Newtons, ...)
Angles are in degrees

endheader
time	SC_y	SC_z	SC_x	AC_y	AC_z	AC_x	GH_y	GH_z	GH_yy	EL_x	PS_y
       0.0              -28.12          14.29          10.87           56.1         -13.24          11.51         -169.9          25.07         -43.53          42.15          89.68
   0.04969              -28.12           14.3          10.87           56.1         -13.24          11.51         -169.9          25.07         -43.55          42.15          89.68
   0.09938              -28.12           14.3          10.87           56.1         -13.24          11.51         -169.8          25.08         -43.57          42.16          89.68
    0.1491              -28.12           14.3          10.88           56.1         -13.24          11.51         -169.8          25.08         -43.59          42.17          89.68
    0.1988              -28.12          14.31          10.88           56.1         -13.24          11.52         -169.7          25.08         -43.61          42.17          89.69
    0.2484              -28.12          14.31          10.89          56.09         -13.25          11.52         -169.7          25.09         -43.63          42.18          89.69
    0.2981              -28.12          14.31          10.89          56.09         -13.25          11.52         -169.6          25.09         -43.66          42.19          89.69
    0.3478              -28.12          14.32          10.89          56.09         -13.25          11.52         -169.5           25.1         -43.68          42.19           89.7
    0.3975              -28.13          14.32           10.9          56.09         -13.25          11.52         -169.5           25.1         -43.71           42.2           89.7
    0.4472              -28.13          14.33           10.9          56.09         -13.25          11.52         -169.4          25.11         -43.74          42.21           89.7
    0.4969              -28.13          14.33          10.91          56.09         -13.25          11.52         -169.3          25.11         -43.77          42.22          89.71
    0.5466              -28.13          14.34          10.91          56.08         -13.25          11.52         -169.2          25.12         -43.81          42.23          89.71
    0.5963              -28.13          14.34          10.92          56.08         -13.25          11.52         -169.1          25.12         -43.84          42.24          89.72
    0.6459              -28.14          14.35          10.93          56.08         -13.25          11.52         -169.0          25.13         -43.88          42.25          89.72
    0.6956              -28.14          14.36          10.93          56.08         -13.26          11.53         -168.9          25.14         -43.93          42.26          89.73
    0.7453              -28.14          14.36          10.94          56.08         -13.26          11.53         -168.8          25.15         -43.97          42.28          89.73
     0.795              -28.14          14.37          10.95          56.07         -13.26          11.53         -168.6          25.16         -44.03          42.29          89.74
    0.8447              -28.15          14.38          10.96          56.07         -13.26          11.53         -168.5          25.17         -44.08          42.31          89.75
    0.8944              -28.15          14.39          10.97          56.07         -13.26          11.53         -168.4          25.18         -44.14          42.33          89.76
    0.9441              -28.15           14.4          10.98          56.06         -13.26          11.53         -168.2          25.19         -44.21          42.35          89.76
    0.9938              -28.16          14.41          10.99          56.06         -13.27          11.54         -168.0           25.2         -44.28          42.37          89.77
     1.043              -28.16          14.42          11.01          56.05         -13.27          11.54         -167.8          25.22         -44.36          42.39          89.79
     1.093              -28.16          14.44          11.02          56.05         -13.27          11.54         -167.6          25.23         -44.45          42.42           89.8
     1.143              -28.17          14.45          11.04          56.04         -13.28          11.54         -167.3          25.25         -44.55          42.45          89.81
     1.193              -28.18          14.47          11.06          56.04         -13.28          11.55         -167.0          25.27         -44.66          42.48          89.82
     1.242              -28.18          14.49          11.08          56.03         -13.28          11.55         -166.7          25.29         -44.79          42.51          89.84
     1.292              -28.19          14.51           11.1          56.02         -13.29          11.56         -166.4          25.32         -44.92          42.55          89.86
     1.342               -28.2          14.53          11.13          56.01         -13.29          11.56         -166.0          25.35         -45.08           42.6          89.88
     1.391              -28.21          14.56          11.16          56.01          -13.3          11.57         -165.5          25.38         -45.25          42.65           89.9
     1.441              -28.22          14.59          11.19          55.99          -13.3          11.57         -165.0          25.41         -45.45          42.71          89.93
     1.491              -28.23          14.63          11.23          55.98         -13.31          11.58         -164.5          25.45         -45.68          42.77          89.96
      1.54              -28.24          14.67          11.27          55.97         -13.32          11.59         -163.8           25.5         -45.94          42.85          89.99
      1.59              -28.26          14.71          11.32          55.95         -13.33           11.6         -163.0          25.56         -46.24          42.93          90.03
      1.64              -28.28          14.77          11.38          55.93         -13.34          11.61         -162.2          25.62         -46.59          43.04          90.08
     1.689               -28.3          14.83          11.44          55.91         -13.35          11.62         -161.1          25.69          -47.0          43.15          90.13
     1.739              -28.32           14.9          11.52          55.88         -13.37          11.64         -159.9          25.78         -47.48          43.29          90.19
     1.789              -28.35          14.99          11.62          55.85         -13.39          11.65         -158.4          25.88         -48.05          43.46          90.27
     1.838              -28.39           15.1          11.73          55.81         -13.41          11.67         -156.7           26.0         -48.73          43.66          90.36
